# AST/ASF file generated using VICON BodyLanguage
# -----------------------------------------------
:version 1.10
:name VICON
:units
  mass 1.0
  length 0.45
  angle deg
:documentation
   .ast/.asf automatically generated from VICON data using
   VICON BodyBuilder and BodyLanguage model FoxedUp or BRILLIANT.MOD
:root
   order TX TY TZ RX RY RZ
   axis XYZ
   position 0 0 0  
   orientation 0 0 0 
:bonedata
  begin
     id 1 
     name lhipjoint
     direction 0.521689 -0.742065 0.420928 
     length 2.47002 
     axis 0 0 0  XYZ
  end
  begin
     id 2 
     name lfemur
     direction 0.34202 -0.939693 0  
     length 7.24654  
     axis 0 0 20  XYZ
    dof rx ry rz
    limits (-160.0 20.0)
           (-70.0 70.0)
           (-60.0 70.0)
  end
  begin
     id 3 
     name ltibia
     direction 0.34202 -0.939693 0   
     length 8.04849   
     axis 0 0 20   XYZ
    dof rx
    limits (-10.0 170.0)
  end
  begin
     id 4 
     name lfoot
     direction 0.0745411 -0.2048 0.975961   
     length 1.72367   
     axis -90 7.62852e-016 20   XYZ
    dof rx rz
    limits (-45.0 90.0)
           (-70.0 20.0)
  end
  begin
     id 5 
     name ltoes
     direction 1.53556e-011 -4.21901e-011 1   
     length 0.87311   
     axis -90 7.62852e-016 20   XYZ
    dof rx
    limits (-90.0 20.0)
  end
  begin
     id 6 
     name rhipjoint
     direction -0.52849 -0.738415 0.418857   
     length 2.48223  
     axis 0 0 0  XYZ 
  end
  begin
     id 7 
     name rfemur
     direction -0.34202 -0.939693 0   
     length 7.15571   
     axis 0 0 -20   XYZ
    dof rx ry rz
    limits (-160.0 20.0)
           (-70.0 70.0)
           (-70.0 60.0)
  end
  begin
     id 8 
     name rtibia
     direction -0.34202 -0.939693 0   
     length 7.81659   
     axis 0 0 -20   XYZ
    dof rx
    limits (-10.0 170.0)
 end
 begin
     id 9 
     name rfoot
     direction -0.0917348 -0.252039 0.963359   
     length 1.84382  
     axis -90 -7.62852e-016 -20   XYZ
    dof rx rz
    limits (-45.0 90.0)
           (-20.0 70.0)
  end
  begin
     id 10 
     name rtoes
     direction -1.53551e-011 -4.21879e-011 1   
     length 0.927771   
     axis -90 -7.62852e-016 -20   XYZ
    dof rx
    limits (-90.0 20.0)
  end
  begin
     id 11 
     name lowerback
     direction 0.00583058 0.999822 0.0179296   
     length 2.1429   
     axis 0 0 0   XYZ
    dof rx ry rz
    limits (-20.0 45.0)
           (-30.0 30.0)
           (-30.0 30.0)
  end
  begin
     id 12 
     name upperback
     direction -0.0137999 0.999752 -0.0175071   
     length 2.14252   
     axis 0 0 0   XYZ
    dof rx ry rz
    limits (-20.0 45.0)
           (-30.0 30.0)
           (-30.0 30.0)
  end
  begin
     id 13 
     name thorax
     direction -0.0158036 0.99955 -0.0254909   
     length 2.1383   
     axis 0 0 0   XYZ
    dof rx ry rz
    limits (-20.0 45.0)
           (-30.0 30.0)
           (-30.0 30.0)
  end
  begin
     id 14 
     name lowerneck
     direction -0.0101179 0.999403 -0.0330262   
     length 1.65808   
     axis 0 0 0   XYZ
    dof rx ry rz
    limits (-20.0 45.0)
           (-30.0 30.0)
           (-30.0 30.0)
  end
  begin
     id 15 
     name upperneck
     direction 0.0497734 0.995978 -0.074501   
     length 1.5897   
     axis 0 0 0   XYZ
    dof rx ry rz
    limits (-20.0 45.0)
           (-30.0 30.0)
           (-30.0 30.0)
  end
  begin
     id 16
     name head
     direction 0.0189524 0.999519 -0.0245438  
     length 1.74024  
     axis 0 0 0   XYZ
    dof rx ry rz
    limits (-20.0 45.0)
           (-30.0 30.0)
           (-30.0 30.0)
  end
  begin
     id 17 
     name lclavicle
     direction 0.945604 0.324422 0.0241537  
     length 3.59089  
     axis 0 0 0   XYZ
    dof ry rz
    limits (-20.0 10.0)
           (0.0 20.0)
  end
  begin
     id 18 
     name lhumerus
     direction 1 -4.48964e-011 -2.63524e-027   
     length 5.2391   
     axis 180 -30 -90   XYZ
    dof rx ry rz
    limits (-60.0 90.0)
           (-90.0 90.0)
           (-90.0 90.0)
  end
  begin
     id 19
     name lradius
     direction 1 -4.48969e-011 3.86978e-028   
     length 3.31467   
     axis 180 -30 -90   XYZ
    dof rx
    limits (-10.0 170.0)
  end
  begin
     id 20
     name lwrist
     direction 1 -4.48963e-011 7.20928e-028   
     length 1.65734   
     axis -5.52449e-016 90 90   XYZ
    dof ry
    limits (-180.0 0.0)
 end
  begin
     id 21 
     name lhand
     direction 1 -4.48964e-011 1.44186e-027   
     length 0.9659   
     axis -9.20027e-016 90 90   XYZ
    dof rx rz
    limits (-90.0 90.0)
           (-45.0 45.0)
  end
  begin
     id 22 
     name lfingers
     direction 1 -4.48965e-011 2.88371e-027   
     length 0.778733   
     axis -1.84005e-015 90 90   XYZ
    dof rx
    limits (0.0 90.0)
  end
  begin
     id 23
     name lthumb
     direction 0.707107 -6.34931e-011 0.707107   
     length 1.11811   
     axis -90 45 2.85299e-015   XYZ
    dof rx rz
    limits (-45.0 45.0)
           (-45.0 45.0)
  end
  begin
     id 24 
     name rclavicle
     direction -0.923762 0.370785 0.0958234   
     length 3.54196  
     axis 0 0 0   XYZ 
    dof ry rz
    limits (-10.0 20.0)
           (-20.0 0.0)
  end
  begin
     id 25 
     name rhumerus
     direction -1 -4.48966e-011 1.18702e-017  
     length 5.30252   
     axis 180 30 90   XYZ
    dof rx ry rz
    limits (-90.0 60.0)
           (-90.0 90.0)
           (-90.0 90.0)
  end
  begin
     id 26 
     name rradius
     direction -1 -4.48966e-011 4.46736e-027   
     length 3.67875   
     axis 180 30 90   XYZ
    dof rx
    limits (-10.0 170.0)
  end
  begin
     id 27 
     name rwrist
     direction -1 -4.48966e-011 7.20928e-028   
     length 1.83937   
     axis -5.52449e-016 -90 -90   XYZ
    dof ry
    limits (-180.0 0.0)
  end
  begin
     id 28
     name rhand
     direction -1 -4.48973e-011 1.44186e-027   
     length 0.594811   
     axis -9.20027e-016 -90 -90   XYZ
    dof rx rz
    limits (-90.0 90.0)
           (-45.0 45.0)
  end
  begin
     id 29
     name rfingers
     direction -1 -4.48963e-011 2.88371e-027   
     length 0.479552   
     axis -1.84005e-015 -90 -90   XYZ
    dof rx
    limits (0.0 90.0)
  end
  begin
     id 30
     name rthumb
     direction -0.707107 -6.34932e-011 0.707107   
     length 0.688544   
     axis -90 -45 -2.85299e-015   XYZ
    dof rx rz
    limits (-45.0 45.0)
           (-45.0 45.0)
  end
:hierarchy
  begin
    root lhipjoint rhipjoint lowerback
    lhipjoint lfemur
    lfemur ltibia
    ltibia lfoot
    lfoot ltoes
    rhipjoint rfemur
    rfemur rtibia
    rtibia rfoot
    rfoot rtoes
    lowerback upperback
    upperback thorax
    thorax lowerneck lclavicle rclavicle
    lowerneck upperneck
    upperneck head
    lclavicle lhumerus
    lhumerus lradius
    lradius lwrist
    lwrist lhand lthumb
    lhand lfingers
    rclavicle rhumerus
    rhumerus rradius
    rradius rwrist
    rwrist rhand rthumb
    rhand rfingers
  end

#!OML:ASF E:\acrobat2\Project_11_07_03\Capture day 1\Session 1\Acrobat.ASF
:FULLY-SPECIFIED
:DEGREES
522
root 8.76226 13.9107 -12.6814 207.01 -2.90694 -180.893
lowerback 12.4437 1.21414 0.0858765
upperback 5.85307 0.934868 -1.14078
thorax -0.829091 0.210708 -1.34848
lowerneck -1.26634 -2.4965 -2.28147
upperneck -19.6359 -4.22606 5.05825
head -5.54586 -2.93929 2.22251
rclavicle 2.38542e-015 -1.14798e-014
rhumerus 28.6583 10.552 -64.2958
rradius 21.2989
rwrist 7.12816
rhand -3.96922 -35.579
rfingers 7.12502
rthumb 21.7835 -424.373
lclavicle 2.38542e-015 -1.14798e-014
lhumerus 12.0122 -35.0314 70.8009
lradius 19.6872
lwrist 11.5804
lhand -13.4126 341.316
lfingers 7.12502
lthumb 12.6954 10.9105
rfemur 159.067 -219.832 -226.027
rtibia -5.98565
rfoot -74.5169 -16.6572
rtoes 39.5988
lfemur -28.9149 -37.9718 51.2972
ltibia -7.42762
lfoot -65.3447 -26.4232
ltoes 57.8745
523
root 8.77445 13.9378 -12.7447 206.324 -3.13785 -180.983
lowerback 12.1927 1.15813 -0.121086
upperback 5.66506 0.873936 -1.1259
thorax -0.896094 0.189794 -1.20634
lowerneck -0.785663 -2.5724 -2.23873
upperneck -19.7643 -4.30999 5.07984
head -5.66458 -2.97822 2.23964
rclavicle -1.41137e-014 4.91992e-015
rhumerus 28.577 10.5468 -63.5049
rradius 21.4987
rwrist 7.01268
rhand -3.97396 -35.633
rfingers 7.12502
rthumb 21.779 -424.428
lclavicle -1.41137e-014 4.91992e-015
lhumerus 10.7428 -34.1641 71.771
lradius 19.6446
lwrist 11.4409
lhand -12.4319 341.955
lfingers 7.12502
lthumb 13.6408 11.4879
rfemur 160.211 -219.782 -224.789
rtibia -5.87264
rfoot -73.653 -17.2217
rtoes 38.864
lfemur -28.1424 -37.2769 50.0051
ltibia -7.28057
lfoot -63.4638 -25.9327
ltoes 57.8977
524
root 8.7812 13.9622 -12.807 205.754 -3.48885 -180.858
lowerback 11.682 1.05661 -0.00557263
upperback 5.60324 0.783289 -1.06254
thorax -0.685485 0.156942 -1.1886
lowerneck -0.663156 -2.70416 -2.10869
upperneck -19.7384 -4.51315 4.87696
head -5.67879 -3.06746 2.16429
rclavicle 2.73329e-016 4.5969e-015
rhumerus 28.7636 10.6024 -62.5035
rradius 21.8574
rwrist 6.53695
rhand -4.02855 -35.8609
rfingers 7.12502
rthumb 21.7265 -424.662
lclavicle 2.73329e-016 4.5969e-015
lhumerus 9.80136 -33.5747 72.3631
lradius 19.5848
lwrist 11.2218
lhand -12.1667 342.101
lfingers 7.12502
lthumb 13.8964 11.6169
rfemur 161.275 -219.575 -223.377
rtibia -5.74853
rfoot -72.8569 -17.6205
rtoes 38.0605
lfemur -27.399 -36.0248 48.901
ltibia -7.10135
lfoot -61.2456 -25.214
ltoes 57.9617
525
root 8.77798 13.9874 -12.8805 205.039 -3.62846 -180.479
lowerback 11.2233 1.03974 0.403942
upperback 5.56132 0.825469 -1.04445
thorax -0.472451 0.194289 -1.40005
lowerneck -0.752306 -2.78937 -1.78289
upperneck -19.4167 -4.65254 4.47893
head -5.5773 -3.11145 1.97861
rclavicle -2.06394e-015 -4.937e-015
rhumerus 28.6865 10.364 -61.8229
rradius 22.3413
rwrist 6.35583
rhand -4.12922 -36.1415
rfingers 7.12502
rthumb 21.6299 -424.953
lclavicle -2.06394e-015 -4.937e-015
lhumerus 8.83582 -33.5699 72.7214
lradius 19.6784
lwrist 11.3864
lhand -11.9962 342.53
lfingers 7.12502
lthumb 14.0607 12.0349
rfemur 162.224 -219.076 -221.756
rtibia -5.63072
rfoot -71.4521 -18.1618
rtoes 36.989
lfemur -26.2713 -35.3389 47.8889
ltibia -6.97862
lfoot -59.6257 -24.4764
ltoes 58.076
526
root 8.77368 14.0073 -12.9492 204.544 -3.73792 -180.22
lowerback 10.8176 1.02636 0.742725
upperback 5.25881 0.893178 -1.07434
thorax -0.557956 0.254606 -1.62552
lowerneck -0.662599 -2.79749 -1.65778
upperneck -18.9908 -4.63309 4.27393
head -5.46811 -3.06302 1.88136
rclavicle 8.92046e-015 -4.07509e-015
rhumerus 28.2051 10.0028 -61.3763
rradius 22.8149
rwrist 6.51978
rhand -4.13378 -36.5425
rfingers 7.12502
rthumb 21.6255 -425.355
lclavicle 8.92046e-015 -4.07509e-015
lhumerus 7.521 -33.7744 73.2762
lradius 19.8236
lwrist 11.7621
lhand -11.9294 342.992
lfingers 7.12502
lthumb 14.125 12.4914
rfemur 163.037 -218.163 -220.419
rtibia -5.5066
rfoot -69.7912 -18.6184
rtoes 36.1986
lfemur -25.4556 -34.8476 47.121
ltibia -6.84327
lfoot -58.4052 -24.1184
ltoes 58.3153
527
root 8.76745 14.0242 -13.0288 203.987 -3.89568 -180.194
lowerback 10.8461 0.968637 0.899694
upperback 4.7487 0.893703 -1.14774
thorax -1.09966 0.277561 -1.7936
lowerneck -0.406886 -2.92819 -1.62051
upperneck -18.63 -4.76378 4.19729
head -5.39744 -3.09119 1.85084
rclavicle 1.54058e-015 6.31141e-015
rhumerus 27.517 9.97717 -60.7847
rradius 23.2832
rwrist 6.45693
rhand -4.19926 -36.8529
rfingers 7.12502
rthumb 21.5626 -425.673
lclavicle 1.54058e-015 6.31141e-015
lhumerus 5.88086 -33.602 74.1454
lradius 19.8477
lwrist 11.6596
lhand -11.8545 343.314
lfingers 7.12502
lthumb 14.1972 12.809
rfemur 164.187 -217.88 -219.23
rtibia -5.49596
rfoot -68.8552 -18.7247
rtoes 35.857
lfemur -24.7588 -35.1375 46.3942
ltibia -6.86469
lfoot -58.0437 -23.6958
ltoes 58.3206
528
root 8.7622 14.0396 -13.1182 203.37 -4.12642 -180.324
lowerback 10.146 0.89323 0.767193
upperback 4.8826 0.782774 -1.12318
thorax -0.58611 0.225512 -1.67144
lowerneck -0.466339 -3.09268 -1.45783
upperneck -18.8957 -5.07084 3.93383
head -5.47457 -3.25623 1.76151
rclavicle -1.61513e-015 -4.27387e-015
rhumerus 27.7021 9.93785 -59.71
rradius 23.9654
rwrist 5.87991
rhand -4.5322 -37.035
rfingers 7.12502
rthumb 21.2428 -425.891
lclavicle -1.61513e-015 -4.27387e-015
lhumerus 5.30679 -32.706 74.5941
lradius 19.8024
lwrist 11.3982
lhand -11.3988 343.817
lfingers 7.12502
lthumb 14.6363 13.2803
rfemur 165.658 -218.083 -218.085
rtibia -5.64662
rfoot -68.4331 -19.0279
rtoes 35.2222
lfemur -24.0886 -35.5874 45.542
ltibia -6.93575
lfoot -57.7411 -23.2846
ltoes 58.2456
529
root 8.76328 14.0599 -13.1981 202.811 -4.3887 -180.322
lowerback 9.79941 0.851095 0.87036
upperback 4.61641 0.775122 -1.17563
thorax -0.670829 0.238736 -1.78013
lowerneck -0.359958 -3.24157 -1.39801
upperneck -18.5336 -5.23373 3.85671
head -5.37879 -3.3067 1.72537
rclavicle 2.73329e-015 -8.34896e-015
rhumerus 27.0014 9.99313 -58.8346
rradius 24.9356
rwrist 5.3902
rhand -4.87326 -37.4737
rfingers 7.12502
rthumb 20.9152 -426.366
lclavicle 2.73329e-015 -8.34896e-015
lhumerus 4.02719 -32.7383 75.1137
lradius 20.0143
lwrist 11.7668
lhand -11.0738 344.142
lfingers 7.12502
lthumb 14.9494 13.5827
rfemur 166.853 -218.729 -217.004
rtibia -5.69578
rfoot -68.6774 -19.249
rtoes 34.2654
lfemur -23.4322 -35.3423 44.735
ltibia -6.93022
lfoot -56.5966 -23.2437
ltoes 58.3755
530
root 8.7646 14.0831 -13.2654 202.233 -4.67264 -180.069
lowerback 8.64808 0.795965 1.10583
upperback 4.99811 0.703828 -1.09607
thorax 0.355752 0.210948 -1.8092
lowerneck -0.89244 -3.03674 -1.5177
upperneck -18.1894 -4.94222 3.95723
head -5.18324 -3.15739 1.74203
rclavicle -1.09332e-014 -1.04859e-014
rhumerus 27.5525 9.56163 -57.9844
rradius 25.4533
rwrist 5.37238
rhand -5.08739 -37.844
rfingers 7.12502
rthumb 20.7094 -426.759
lclavicle -1.09332e-014 -1.04859e-014
lhumerus 3.94864 -32.7697 74.9054
lradius 20.1516
lwrist 12.4168
lhand -11.192 344.316
lfingers 7.12502
lthumb 14.8355 13.7653
rfemur 167.798 -219.247 -215.76
rtibia -5.61619
rfoot -68.686 -19.4214
rtoes 34.0748
lfemur -22.6704 -34.3496 43.9922
ltibia -6.82814
lfoot -54.6849 -23.008
ltoes 58.5624
531
root 8.76414 14.1005 -13.3341 201.629 -4.83879 -179.848
lowerback 8.54812 0.717981 1.26345
upperback 4.69159 0.65045 -1.04345
thorax 0.0924045 0.198493 -1.83907
lowerneck -1.31141 -2.88868 -1.73489
upperneck -17.242 -4.64408 4.12399
head -4.8172 -2.95962 1.78216
rclavicle 1.49089e-016 -1.68967e-015
rhumerus 27.4806 9.76541 -57.1796
rradius 25.6268
rwrist 5.0176
rhand -5.38345 -37.7299
rfingers 7.12502
rthumb 20.425 -426.676
lclavicle 1.49089e-016 -1.68967e-015
lhumerus 2.65443 -32.6458 75.4267
lradius 20.2625
lwrist 12.5329
lhand -11.3189 344.673
lfingers 7.12502
lthumb 14.7133 14.1311
rfemur 168.741 -218.729 -214.523
rtibia -5.55535
rfoot -67.388 -19.9439
rtoes 33.5695
lfemur -21.7996 -33.5403 43.1942
ltibia -6.72934
lfoot -53.0864 -22.6452
ltoes 58.7229
532
root 8.76527 14.1135 -13.4072 201.023 -4.89843 -179.824
lowerback 8.23844 0.688951 1.19776
upperback 4.55779 0.627006 -1.04517
thorax 0.121862 0.194081 -1.79938
lowerneck -1.73904 -2.90647 -1.79367
upperneck -16.6524 -4.63258 4.16608
head -4.56222 -2.92914 1.77909
rclavicle -9.54166e-015 9.44227e-015
rhumerus 27.5534 9.92124 -56.2534
rradius 25.8328
rwrist 4.4945
rhand -5.93552 -37.4882
rfingers 7.12502
rthumb 19.8943 -426.49
lclavicle -9.54166e-015 9.44227e-015
lhumerus 1.5999 -31.9307 75.9555
lradius 20.3597
lwrist 12.1493
lhand -10.9812 345.297
lfingers 7.12502
lthumb 15.0386 14.7313
rfemur 169.713 -217.795 -213.495
rtibia -5.43775
rfoot -65.8733 -20.1334
rtoes 32.133
lfemur -20.9764 -33.8388 42.4961
ltibia -6.79325
lfoot -52.7485 -22.4766
ltoes 58.7455
533
root 8.76875 14.1268 -13.4752 200.396 -4.91313 -179.82
lowerback 8.01901 0.692739 1.06365
upperback 4.38085 0.644952 -1.05334
thorax 0.0580624 0.208968 -1.7322
lowerneck -1.78831 -2.96289 -1.49711
upperneck -16.0422 -4.75191 3.78001
head -4.90046 -2.95623 1.77321
rclavicle -6.85807e-015 7.15625e-015
rhumerus 27.2814 9.71045 -55.7021
rradius 26.3531
rwrist 4.53765
rhand -6.48157 -37.5554
rfingers 7.12502
rthumb 19.3694 -426.611
lclavicle -6.85807e-015 7.15625e-015
lhumerus 0.435514 -30.9899 76.5656
lradius 20.5071
lwrist 11.5958
lhand -10.4742 345.818
lfingers 7.12502
lthumb 15.527 15.2142
rfemur 170.607 -217.558 -212.621
rtibia -5.32049
rfoot -65.0857 -20.306
rtoes 31.2691
lfemur -20.1623 -34.3426 41.8376
ltibia -6.86419
lfoot -52.7246 -22.3569
ltoes 58.6553
534
root 8.76881 14.139 -13.5492 199.728 -4.93094 -179.527
lowerback 7.7855 0.729445 1.22653
upperback 4.18408 0.730003 -1.01118
thorax -0.0115439 0.262862 -1.78509
lowerneck -1.20455 -2.98269 -1.18392
upperneck -16.6602 -4.7517 3.68467
head -4.67826 -2.98027 1.54654
rclavicle 3.27995e-015 1.19271e-014
rhumerus 26.7823 9.47798 -55.205
rradius 27.0382
rwrist 4.66813
rhand -6.73858 -37.7895
rfingers 7.12502
rthumb 19.1222 -426.869
lclavicle 3.27995e-015 1.19271e-014
lhumerus -0.693837 -30.5256 77.0502
lradius 20.6977
lwrist 11.5449
lhand -10.277 345.915
lfingers 7.12502
lthumb 15.7169 15.297
rfemur 171.508 -218.074 -211.486
rtibia -5.30845
rfoot -64.7988 -20.6236
rtoes 30.848
lfemur -19.1302 -34.0053 41.1753
ltibia -6.81959
lfoot -51.8647 -22.1894
ltoes 58.6408
535
root 8.76514 14.1493 -13.6317 199.006 -4.86326 -179.199
lowerback 7.47423 0.796911 1.45454
upperback 4.05422 0.852407 -0.98037
thorax 0.0345251 0.335235 -1.88739
lowerneck -0.929243 -3.04317 -1.1772
upperneck -16.5422 -4.79002 3.77187
head -4.68435 -2.98872 1.57623
rclavicle 3.21037e-014 -1.31198e-014
rhumerus 26.3544 9.41027 -54.5366
rradius 27.6795
rwrist 4.51075
rhand -7.06912 -37.9365
rfingers 7.12502
rthumb 18.8043 -427.048
lclavicle 3.21037e-014 -1.31198e-014
lhumerus -1.68667 -30.1566 77.4402
lradius 20.8876
lwrist 11.4949
lhand -10.2686 345.978
lfingers 7.12502
lthumb 15.725 15.3592
rfemur 172.436 -218.198 -210.289
rtibia -5.28085
rfoot -63.9508 -20.9954
rtoes 29.4797
lfemur -17.8916 -33.7431 40.4426
ltibia -6.8338
lfoot -51.0016 -22.2105
ltoes 58.6881
